<?xml version="1.0" standalone="no"?>
<svg version="1.0" xmlns="http://www.w3.org/2000/svg"
 width="282.000000pt" height="375.000000pt" viewBox="0 0 282.000000 375.000000"
 preserveAspectRatio="xMidYMid meet">
<path d="M0 1875 l0 -1875 1410 0 1410 0 0 505 c0 319 -4 505 -10 505 -5 0 -7
-7 -4 -15 4 -9 0 -15 -8 -15 -38 0 -98 80 -78 105 14 17 2 25 -35 25 -33 0
-65 25 -65 51 0 9 -14 29 -31 47 -17 17 -28 35 -25 40 3 5 -14 24 -37 43 -23
18 -48 42 -56 52 -7 11 -27 31 -44 46 -65 57 -74 66 -69 79 4 14 -84 101 -104
102 -6 0 -17 -6 -23 -14 -9 -11 -18 -11 -49 -1 -20 7 -38 18 -38 24 -3 24 -5
25 -14 11 -9 -13 -11 -13 -20 0 -6 10 -10 11 -10 3 0 -15 -9 -16 -29 -4 -13 8
-13 12 -1 26 12 15 11 19 -10 36 -14 10 -44 28 -67 39 -24 11 -43 24 -43 29 0
5 -16 15 -36 21 -19 7 -38 18 -41 26 -3 8 -9 14 -14 14 -16 0 -60 52 -55 66 3
9 -1 14 -13 14 -10 0 -22 10 -28 23 -9 19 -18 22 -69 22 -39 0 -59 4 -59 12 0
7 -7 18 -15 25 -12 11 -12 11 -2 -4 9 -11 10 -18 2 -23 -14 -9 -50 4 -50 17 0
6 -8 20 -17 30 -26 29 -43 86 -28 92 7 2 11 20 10 45 -1 23 2 41 8 41 5 0 15
7 22 17 26 35 -36 94 -63 60 -6 -7 -7 -34 -1 -71 8 -60 3 -89 -11 -66 -13 21
-32 0 -26 -27 9 -33 -3 -49 -19 -26 -13 17 -15 16 -26 -15 -9 -26 -14 -30 -25
-21 -11 9 -16 6 -24 -15 -9 -25 -30 -36 -30 -16 0 15 33 50 47 50 8 0 13 12
13 29 0 24 4 29 20 26 25 -5 25 0 0 25 -19 19 -19 19 -34 -1 -21 -31 -37 -15
-30 31 4 21 1 53 -5 71 -12 35 1 64 25 55 19 -7 32 15 29 48 -5 39 2 53 31 60
25 7 33 31 12 39 -10 3 -10 7 -1 17 6 7 9 19 6 26 -7 18 16 74 30 74 8 0 7 4
-1 12 -8 8 -7 20 3 46 8 19 15 53 15 76 0 23 5 47 11 53 6 6 16 21 23 34 20
40 31 32 27 -22 -2 -30 4 -73 14 -105 19 -60 22 -84 29 -191 2 -40 0 -75 -5
-78 -5 -4 -9 -1 -9 4 0 6 -4 11 -10 11 -17 0 -11 -36 9 -54 17 -16 19 -16 26
1 10 24 15 195 6 208 -8 11 -7 23 2 45 4 8 8 27 11 42 2 14 9 35 15 46 15 28
14 32 -8 32 -13 0 -20 9 -24 33 -8 57 8 72 42 38 19 -19 19 -19 24 -1 3 11 -3
24 -14 32 -26 18 -37 68 -15 68 45 0 150 -91 209 -180 13 -19 30 -34 39 -32 8
1 23 -7 32 -17 10 -11 23 -18 29 -16 52 15 51 14 32 35 -17 19 -19 19 -32 2
-13 -15 -13 -15 -3 6 12 24 3 49 -24 72 -9 7 -16 28 -16 49 0 22 -7 43 -17 52
-28 25 -64 73 -63 84 1 14 51 26 64 16 7 -5 26 1 48 15 36 23 49 44 28 44 -5
0 -10 7 -10 15 0 8 -6 15 -12 16 -7 0 -26 2 -43 2 -22 2 -30 7 -30 21 0 17 8
20 72 22 49 1 73 -2 73 -10 0 -7 3 -7 8 2 7 10 17 9 48 -5 27 -12 34 -18 22
-21 -25 -5 -23 -22 2 -22 11 0 20 5 20 10 0 6 5 10 10 10 6 0 10 -10 10 -22 0
-21 0 -21 21 -2 14 12 23 15 26 8 2 -7 12 -10 21 -7 22 5 82 -50 82 -76 0 -11
5 -21 11 -23 17 -6 2 -78 -16 -78 -24 0 -45 12 -45 26 0 8 -12 19 -26 24 -14
6 -28 19 -31 29 -3 12 -11 17 -19 14 -20 -7 -17 -20 8 -45 12 -12 23 -35 25
-52 2 -20 16 -41 40 -63 21 -17 35 -35 31 -38 -4 -4 2 -23 13 -42 11 -19 17
-43 14 -53 -3 -10 -1 -21 4 -24 13 -8 2 -37 -18 -53 -14 -10 -13 -13 6 -30 20
-17 21 -22 10 -71 -8 -36 -8 -55 -1 -60 16 -11 35 -92 34 -142 -1 -25 2 -57 5
-72 6 -23 3 -29 -19 -39 -17 -8 -26 -20 -26 -35 0 -18 -7 -24 -35 -30 -19 -3
-38 -11 -42 -17 -12 -20 -21 -87 -11 -87 6 0 8 -7 4 -15 -8 -23 4 -45 25 -45
11 0 27 -16 41 -40 17 -30 29 -40 44 -38 16 2 41 -17 88 -65 36 -37 66 -72 66
-77 0 -14 -18 -12 -23 3 -2 6 -8 9 -12 5 -13 -12 7 -30 29 -24 15 4 30 -4 55
-29 19 -19 29 -35 22 -35 -6 0 -11 -5 -11 -11 0 -6 6 -9 13 -7 6 3 21 -3 31
-13 22 -21 15 -25 -15 -9 -10 6 -19 7 -19 3 1 -19 17 -31 45 -35 23 -2 32 -10
40 -33 5 -16 18 -37 27 -46 10 -9 18 -23 18 -30 0 -8 11 -23 25 -33 14 -11 24
-25 21 -32 -3 -7 2 -15 10 -18 17 -7 19 -42 2 -50 -7 -4 -3 -4 10 -2 14 3 22
-1 22 -10 0 -8 7 -14 15 -14 9 0 20 -10 25 -23 5 -14 9 79 9 254 1 298 2 290
-53 303 -17 4 -42 16 -57 27 -15 10 -31 19 -36 19 -5 0 -32 19 -60 43 -48 39
-102 79 -129 95 -6 4 -27 32 -47 63 -34 53 -35 58 -23 92 16 47 20 51 43 38
10 -6 56 -14 102 -18 l84 -8 23 -73 c13 -40 26 -89 28 -109 4 -29 18 -49 65
-95 l61 -58 -1 528 c-1 290 -3 516 -5 502 -3 -14 -9 -41 -14 -62 -12 -43 -36
-43 -62 2 -12 22 -21 27 -38 23 -16 -4 -20 -12 -18 -32 3 -22 7 -26 31 -23 31
4 30 5 27 -89 -1 -39 3 -70 9 -73 6 -4 11 -13 11 -19 0 -7 -4 -6 -10 3 -8 13
-11 11 -16 -7 -4 -13 -11 -23 -16 -23 -5 0 -14 -14 -20 -30 -5 -17 -15 -29
-22 -27 -15 5 -21 87 -6 87 6 0 8 5 5 10 -4 6 -12 4 -21 -5 -9 -8 -22 -15 -29
-15 -8 0 -17 -15 -21 -35 -5 -27 -2 -41 12 -56 16 -17 16 -22 4 -29 -8 -6 -23
-10 -32 -10 -9 0 -20 -4 -23 -10 -3 -5 -19 -10 -36 -10 -31 0 -37 -16 -19 -51
10 -18 13 -18 33 -4 28 19 61 19 91 -1 30 -19 39 -53 30 -109 -7 -49 -28 -64
-54 -40 -9 8 -20 15 -24 15 -4 0 -27 9 -52 20 -39 18 -43 24 -38 45 4 15 2 25
-5 25 -6 0 -11 -7 -11 -16 0 -8 -5 -12 -10 -9 -6 4 -9 3 -8 -2 3 -13 -13 -53
-22 -53 -14 0 -38 93 -33 127 3 17 13 39 23 48 19 17 17 45 -4 45 -6 0 -19 14
-29 31 -14 26 -22 30 -42 25 -33 -8 -32 0 4 33 25 24 29 34 25 66 -2 21 -12
50 -21 66 -14 23 -14 30 -3 44 12 14 24 14 67 -2 10 -4 11 9 7 56 -6 57 -5 61
14 61 11 0 22 6 24 12 5 15 38 -13 38 -32 0 -6 8 -10 18 -8 11 2 18 14 20 37
3 30 6 33 33 29 16 -3 29 -1 29 4 0 4 -4 8 -10 8 -5 0 -10 6 -10 14 0 7 -7 19
-15 26 -13 11 -12 15 6 38 14 18 18 34 14 53 -3 15 -1 30 4 34 6 3 11 15 11
26 0 14 -7 19 -24 19 -14 0 -28 5 -31 10 -3 6 -17 7 -31 4 -14 -4 -24 -2 -24
4 0 17 18 24 23 10 4 -8 6 -7 6 3 1 9 7 19 15 22 9 4 12 0 9 -12 -2 -10 1 -18
9 -19 91 -10 127 -43 89 -81 -13 -13 -16 -22 -9 -29 6 -6 5 -17 -3 -29 -18
-30 -5 -54 29 -51 24 2 28 6 24 25 -4 19 -7 21 -18 12 -9 -7 -14 -8 -14 -1 0
5 7 12 15 15 13 6 54 61 83 113 7 13 18 24 24 24 6 0 7 8 3 18 -5 14 -4 15 6
5 7 -7 17 -13 21 -13 4 0 8 144 8 320 l0 320 -1410 0 -1410 0 0 -1875z m1523
1678 c4 -3 29 -7 57 -8 27 -1 56 -7 64 -14 9 -8 15 -8 18 -2 2 7 22 5 58 -5
30 -9 66 -19 80 -22 27 -8 70 -79 54 -91 -12 -9 -16 -91 -4 -91 6 0 10 -18 10
-40 0 -47 -18 -60 -55 -40 -20 11 -27 11 -42 -1 -10 -7 -15 -9 -11 -5 4 5 3
15 -3 23 -9 9 -8 21 1 42 10 24 9 34 -5 61 -28 54 -101 117 -162 140 -68 25
-197 35 -189 15 2 -7 -4 -30 -15 -51 l-19 -38 35 -29 c19 -16 35 -33 35 -40 0
-6 9 -20 19 -31 11 -12 36 -52 55 -91 19 -38 35 -64 36 -57 0 17 35 15 50 -3
10 -12 9 -16 -4 -21 -9 -3 -22 -4 -30 -1 -18 7 -27 -24 -17 -61 7 -24 12 -27
42 -24 19 2 44 10 56 18 12 8 29 14 38 14 8 0 15 9 15 20 0 11 7 20 15 20 12
0 13 -4 6 -18 -5 -10 -17 -24 -25 -31 -11 -9 -13 -26 -9 -66 6 -53 5 -54 -28
-74 -40 -25 -62 -26 -79 -6 -25 30 -39 18 -36 -30 2 -33 -1 -45 -11 -45 -8 0
-12 4 -8 9 3 5 1 12 -5 16 -5 3 -11 0 -11 -7 -1 -7 -3 -24 -4 -37 -1 -13 -9
-27 -16 -32 -8 -5 -9 -9 -3 -9 6 0 17 -17 23 -38 11 -33 11 -43 -3 -70 -9 -17
-25 -36 -36 -42 -17 -9 -26 -6 -51 19 -17 17 -27 36 -24 42 4 5 0 16 -9 22
-11 8 -20 38 -27 82 -13 95 -16 103 -49 120 -32 16 -66 21 -41 6 21 -14 -4
-51 -36 -51 -23 0 -25 3 -20 29 6 29 6 30 -31 24 -59 -9 -129 -78 -141 -137
-6 -26 -12 -32 -39 -34 -26 -3 -32 1 -38 22 -9 39 -30 32 -31 -10 -1 -20 -6
-41 -12 -47 -7 -7 -7 -14 0 -24 14 -16 2 -17 -40 -2 -34 12 -43 42 -15 53 9 3
14 13 11 21 -4 9 -1 12 7 9 15 -6 40 43 26 51 -6 4 -15 3 -21 -1 -8 -4 -9 1
-4 16 6 20 4 22 -14 17 -11 -3 -21 -2 -21 3 0 9 28 23 50 24 9 1 16 13 18 30
3 22 6 26 13 15 6 -10 9 -5 9 19 0 25 4 32 19 32 41 0 33 65 -9 74 -33 6 -70
42 -70 67 0 30 -16 30 -51 -2 -30 -27 -99 -69 -114 -69 -17 0 1 32 40 70 43
42 57 70 34 70 -5 0 -7 5 -4 10 11 17 -3 11 -29 -14 -15 -13 -26 -31 -26 -40
0 -9 -6 -19 -13 -22 -16 -6 -19 -21 -19 -87 1 -40 -2 -48 -16 -45 -12 3 -16
12 -14 31 1 15 -2 27 -7 27 -6 0 -8 6 -5 14 3 8 1 17 -5 21 -6 3 -11 14 -11
25 0 10 -7 21 -16 24 -17 6 -11 44 10 59 6 5 -9 6 -33 3 -27 -4 -49 -2 -57 5
-9 8 -39 10 -84 7 -58 -4 -77 -11 -125 -43 -31 -20 -59 -44 -62 -53 -4 -10
-14 -28 -23 -42 -18 -29 -55 -164 -47 -177 3 -4 -1 -19 -9 -33 -7 -14 -13 -19
-14 -11 0 7 -6 11 -15 7 -12 -4 -14 1 -9 33 4 27 2 42 -10 54 -25 25 -10 61
45 111 27 24 49 49 49 55 0 6 9 16 19 23 11 7 17 18 13 27 -4 10 -1 13 11 8
11 -4 17 -1 17 7 0 14 34 34 65 39 11 1 31 13 43 25 24 24 42 29 42 10 0 -9 3
-9 12 0 16 16 98 16 99 0 0 -10 2 -10 6 0 7 17 28 15 47 -4 9 -8 16 -11 16 -5
0 6 12 11 26 11 14 0 46 15 72 32 85 59 124 73 245 93 27 4 37 2 37 -7 0 -8 3
-9 8 -3 24 33 67 47 162 51 97 4 98 4 134 40 19 19 40 33 46 29 6 -4 9 -1 8 6
-5 23 146 52 165 32z m-1090 -535 c-4 -40 -3 -42 11 -24 14 18 16 17 41 -10
15 -16 22 -30 16 -32 -18 -6 -12 -22 8 -22 18 0 51 -38 51 -59 0 -5 -14 -18
-30 -28 -40 -23 -36 -49 8 -45 18 2 32 -1 32 -8 0 -14 -13 -18 -77 -23 -45 -3
-53 -1 -58 14 -4 11 -14 19 -23 19 -18 0 -56 37 -58 55 -3 27 -18 45 -40 45
-25 0 -32 14 -13 26 6 3 8 15 6 26 -7 25 31 62 79 80 19 7 34 16 34 20 0 4 4
8 9 8 5 0 7 -19 4 -42z m981 -1164 c9 -3 13 -11 9 -18 -3 -6 3 -3 15 7 15 14
29 17 51 12 17 -4 31 -11 31 -16 0 -5 3 -8 8 -8 20 3 32 -2 32 -16 0 -8 11
-17 25 -21 28 -7 78 -61 69 -75 -9 -15 -24 -10 -18 6 5 11 2 13 -10 9 -9 -3
-16 -12 -16 -19 0 -16 -65 -39 -81 -29 -7 4 -38 7 -70 6 -43 0 -67 -6 -89 -22
-22 -16 -48 -23 -93 -25 -34 -1 -75 -5 -92 -9 -25 -5 -27 -5 -7 3 12 6 22 13
22 16 0 4 -4 4 -9 1 -4 -3 -16 1 -27 8 -30 22 -2 46 55 46 35 0 42 3 31 11
-12 8 -10 10 10 6 14 -2 34 -8 44 -12 13 -6 17 -5 12 3 -8 14 32 112 54 129
18 14 23 15 44 7z m-798 -404 c27 -11 28 -13 13 -42 -19 -35 -13 -104 11 -128
17 -17 24 -19 36 -9 21 17 29 3 16 -26 -13 -29 -4 -59 28 -93 11 -12 18 -27
14 -34 -4 -7 -3 -8 4 -4 15 9 15 7 -3 -44 -14 -41 -15 -106 -1 -129 4 -6 1
-11 -6 -11 -11 0 -11 -2 0 -9 10 -6 11 -20 7 -47 -16 -94 -39 -127 -57 -81 -8
18 -53 24 -63 7 -3 -6 4 -10 15 -10 17 0 20 -4 15 -17 -4 -10 -12 -40 -17 -66
-7 -39 -6 -53 6 -72 18 -27 21 -65 6 -65 -5 0 -7 -6 -4 -13 5 -15 -44 -77 -61
-77 -17 0 -27 -43 -17 -72 10 -26 8 -64 -3 -91 -7 -16 -9 -17 -32 -2 -27 18
-40 14 -27 -7 5 -7 7 -24 5 -37 -2 -14 1 -21 8 -17 5 4 8 12 5 19 -2 7 4 13
15 14 17 1 19 -2 11 -23 -9 -23 -62 -87 -119 -141 -25 -24 -82 -40 -102 -27
-8 4 -10 3 -5 -4 4 -7 1 -12 -8 -12 -8 0 -20 10 -27 22 -10 18 -9 20 5 15 12
-5 16 0 16 23 0 16 10 45 21 65 12 20 20 37 18 38 -43 23 -73 37 -76 34 -9 -9
10 -35 22 -31 19 8 12 -31 -14 -80 -11 -21 -18 -43 -15 -47 3 -5 0 -9 -6 -9
-10 0 -50 57 -50 73 0 4 7 7 15 7 8 0 15 -5 15 -12 0 -6 3 -8 6 -5 9 9 -16 38
-27 31 -5 -3 -9 6 -9 20 0 28 20 47 20 19 1 -14 4 -13 14 7 13 22 12 26 -5 38
-20 14 -26 42 -9 42 6 0 10 9 10 19 0 26 17 36 57 32 24 -2 33 2 33 13 0 8 9
21 20 29 11 8 17 17 13 20 -12 13 -32 7 -53 -15 -23 -25 -40 -17 -19 8 11 13
11 18 2 21 -7 3 -13 9 -13 14 0 6 5 7 11 4 16 -10 59 4 59 19 0 8 7 17 16 20
12 5 14 10 5 20 -13 16 -5 26 23 27 15 0 17 2 6 6 -33 13 -54 63 -26 63 8 0
16 7 20 15 3 8 13 15 22 15 12 0 15 6 11 27 -3 15 1 40 9 54 15 31 44 46 44
24 0 -8 -4 -15 -10 -15 -5 0 -10 -7 -10 -15 0 -8 6 -15 13 -15 20 1 41 23 59
63 16 33 16 38 3 43 -19 8 -20 64 -1 89 8 11 12 25 9 31 -2 7 0 15 5 18 16 10
1 46 -19 46 -19 0 -26 15 -11 24 5 3 7 24 6 47 -1 27 5 53 17 73 10 17 19 41
19 53 0 13 8 24 20 28 11 4 18 10 15 15 -9 15 -14 154 -7 205 4 30 8 41 10 27
2 -13 14 -27 28 -32z"/>
<path d="M1268 3277 c-27 -5 -48 -14 -48 -21 0 -6 -4 -17 -9 -25 -8 -13 -12
-13 -27 0 -15 12 -17 12 -12 -1 2 -8 14 -19 26 -25 12 -5 22 -18 22 -27 0 -10
5 -18 11 -18 6 0 9 -9 6 -20 -4 -16 0 -20 18 -20 12 0 34 -9 48 -20 14 -11 32
-20 40 -20 23 0 50 -37 44 -60 -6 -24 23 -60 48 -60 17 0 18 7 15 72 -3 79 15
111 39 66 11 -22 11 -22 6 -1 -3 12 -1 24 5 28 6 3 8 11 4 16 -4 6 -10 6 -19
-1 -10 -8 -18 -1 -35 32 -33 65 -48 78 -91 78 -29 0 -37 4 -33 14 8 21 -5 24
-58 13z"/>
</svg>
